<svg width="42" height="42" viewBox="0 0 42 42" fill="none" xmlns="http://www.w3.org/2000/svg">
<path opacity="0.05" fill-rule="evenodd" clip-rule="evenodd" d="M31 2H11C8.87497 2 6.92196 2.73648 5.38228 3.96813L14.6712 13.2571C16.3951 11.8464 18.5987 11 21 11C23.4013 11 25.6048 11.8464 27.3287 13.257L36.6177 3.96809C35.078 2.73647 33.125 2 31 2ZM25.9056 14.6801C24.5509 13.6271 22.8487 13 21 13C19.1513 13 17.449 13.6271 16.0943 14.6802L21 19.5858L25.9056 14.6801ZM13.257 14.6713L3.96807 5.38235C2.73646 6.92201 2 8.875 2 11V31C2 33.125 2.73647 35.078 3.96809 36.6177L13.257 27.3287C11.8464 25.6048 11 23.4013 11 21C11 18.5987 11.8464 16.3952 13.257 14.6713ZM14.6801 25.9056C13.6271 24.5509 13 22.8487 13 21C13 19.1513 13.6271 17.4491 14.6801 16.0944L19.5857 21L14.6801 25.9056ZM14.6713 28.7429L5.3823 38.0319C6.92197 39.2635 8.87498 40 11 40H31C33.125 40 35.078 39.2635 36.6176 38.0319L27.3287 28.743C25.6048 30.1536 23.4013 31 21 31C18.5987 31 16.3951 30.1536 14.6713 28.7429ZM25.9056 27.3199C24.5509 28.3729 22.8487 29 21 29C19.1513 29 17.449 28.3729 16.0943 27.3198L21 22.4142L25.9056 27.3199ZM27.3198 25.9057L22.4142 21L27.3198 16.0943C28.3729 17.449 29 19.1513 29 21C29 22.8487 28.3729 24.551 27.3198 25.9057ZM28.7429 27.3288C30.1536 25.6049 31 23.4013 31 21C31 18.5987 30.1536 16.3951 28.7429 14.6713L38.0319 5.3823C39.2635 6.92197 40 8.87498 40 11V31C40 33.125 39.2635 35.078 38.0319 36.6177L28.7429 27.3288ZM11 0C4.92487 0 0 4.92487 0 11V31C0 37.0751 4.92487 42 11 42H31C37.0751 42 42 37.0751 42 31V11C42 4.92487 37.0751 0 31 0H11Z" fill="#2EF2FF"/>
<g clip-path="url(#clip0_23_244)">
<path fill-rule="evenodd" clip-rule="evenodd" d="M32.833 13.5051L31.4722 13.1184C30.445 12.8251 29.6579 12.0384 29.3644 11.0251L28.9775 9.6651C28.8574 9.27843 28.4972 8.99843 28.0837 8.99843C27.6701 8.99843 27.3099 9.27843 27.1898 9.6651L26.8029 11.0251C26.5095 12.0518 25.7223 12.8251 24.6951 13.1184L23.3344 13.5051C22.9341 13.6118 22.6673 13.9851 22.6673 14.3984C22.6673 14.8118 22.9475 15.1718 23.3344 15.2784L24.6951 15.6651C25.7223 15.9584 26.5095 16.7451 26.8029 17.7584L27.1898 19.1184C27.2966 19.5051 27.6568 19.7718 28.0837 19.7718C28.5106 19.7718 28.8574 19.5051 28.9775 19.1184L29.3644 17.7584C29.6579 16.7318 30.445 15.9584 31.4722 15.6651L32.833 15.2784C33.2332 15.1718 33.5 14.7984 33.5 14.3851C33.5 13.9718 33.2198 13.6118 32.833 13.5051ZM29.0043 24.4118L16.9842 17.3584C16.2238 16.9051 15.2766 17.5584 15.4234 18.4251L17.7046 32.1318C17.8514 32.9984 18.972 33.3051 19.5457 32.6251L23.081 28.3851C23.201 28.2384 23.3745 28.1318 23.5612 28.0651L28.8175 26.3184C29.6713 26.0384 29.7914 24.8918 29.0176 24.4384L29.0043 24.4118ZM13.2087 11.1984C13.6356 12.5051 13.9958 12.8651 15.3166 13.3051C15.8902 13.4918 15.8902 14.2918 15.3166 14.4784C14.0092 14.9184 13.649 15.2784 13.2087 16.5851C13.022 17.1584 12.2215 17.1584 12.0347 16.5851C11.6078 15.2784 11.2476 14.9184 9.9269 14.4784C9.64675 14.3851 9.5 14.1451 9.5 13.8918C9.5 13.6384 9.64675 13.3984 9.9269 13.3051C11.2343 12.8651 11.5945 12.5051 12.0347 11.1984C12.2215 10.6251 13.022 10.6251 13.2087 11.1984Z" fill="#EAEDFF"/>
</g>
<defs>
<clipPath id="clip0_23_244">
<rect width="24" height="24" fill="white" transform="translate(9.5 8.99817)"/>
</clipPath>
</defs>
</svg>
