<svg width="42" height="42" viewBox="0 0 42 42" fill="none" xmlns="http://www.w3.org/2000/svg">
<path opacity="0.05" fill-rule="evenodd" clip-rule="evenodd" d="M31 2H11C8.87497 2 6.92196 2.73648 5.38228 3.96813L14.6712 13.2571C16.3951 11.8464 18.5987 11 21 11C23.4013 11 25.6048 11.8464 27.3287 13.257L36.6177 3.96809C35.078 2.73647 33.125 2 31 2ZM25.9056 14.6801C24.5509 13.6271 22.8487 13 21 13C19.1513 13 17.449 13.6271 16.0943 14.6802L21 19.5858L25.9056 14.6801ZM13.257 14.6713L3.96807 5.38235C2.73646 6.92201 2 8.875 2 11V31C2 33.125 2.73647 35.078 3.96809 36.6177L13.257 27.3287C11.8464 25.6048 11 23.4013 11 21C11 18.5987 11.8464 16.3952 13.257 14.6713ZM14.6801 25.9056C13.6271 24.5509 13 22.8487 13 21C13 19.1513 13.6271 17.4491 14.6801 16.0944L19.5857 21L14.6801 25.9056ZM14.6713 28.7429L5.3823 38.0319C6.92197 39.2635 8.87498 40 11 40H31C33.125 40 35.078 39.2635 36.6176 38.0319L27.3287 28.743C25.6048 30.1536 23.4013 31 21 31C18.5987 31 16.3951 30.1536 14.6713 28.7429ZM25.9056 27.3199C24.5509 28.3729 22.8487 29 21 29C19.1513 29 17.449 28.3729 16.0943 27.3198L21 22.4142L25.9056 27.3199ZM27.3198 25.9057L22.4142 21L27.3198 16.0943C28.3729 17.449 29 19.1513 29 21C29 22.8487 28.3729 24.551 27.3198 25.9057ZM28.7429 27.3288C30.1536 25.6049 31 23.4013 31 21C31 18.5987 30.1536 16.3951 28.7429 14.6713L38.0319 5.3823C39.2635 6.92197 40 8.87498 40 11V31C40 33.125 39.2635 35.078 38.0319 36.6177L28.7429 27.3288ZM11 0C4.92487 0 0 4.92487 0 11V31C0 37.0751 4.92487 42 11 42H31C37.0751 42 42 37.0751 42 31V11C42 4.92487 37.0751 0 31 0H11Z" fill="white"/>
<path fill-rule="evenodd" clip-rule="evenodd" d="M11.5 26.5C11.5 25.9477 11.9477 25.5 12.5 25.5H18C18.5523 25.5 19 25.9477 19 26.5C19 27.0523 18.5523 27.5 18 27.5H12.5C11.9477 27.5 11.5 27.0523 11.5 26.5Z" fill="#EAEDFF"/>
<path fill-rule="evenodd" clip-rule="evenodd" d="M10 21C10 20.4477 10.4477 20 11 20H15.5C16.0523 20 16.5 20.4477 16.5 21C16.5 21.5523 16.0523 22 15.5 22H11C10.4477 22 10 21.5523 10 21Z" fill="#EAEDFF"/>
<path fill-rule="evenodd" clip-rule="evenodd" d="M12 15.5C12 14.9477 12.4477 14.5 13 14.5H18C18.5523 14.5 19 14.9477 19 15.5C19 16.0523 18.5523 16.5 18 16.5H13C12.4477 16.5 12 16.0523 12 15.5Z" fill="#EAEDFF"/>
<path fill-rule="evenodd" clip-rule="evenodd" d="M26.3676 11.07C26.7947 11.2389 27.0519 11.6769 26.9912 12.1322L26.1422 18.5H29.9454C29.9569 18.5 29.9684 18.5 29.9799 18.5C30.2007 18.5 30.4295 18.4999 30.6185 18.5172C30.8044 18.5342 31.1426 18.5792 31.4449 18.8126C31.7975 19.0847 32.0109 19.4994 32.0274 19.9444C32.0415 20.3261 31.8816 20.6275 31.7874 20.7886C31.6916 20.9524 31.5586 21.1386 31.4302 21.3182C31.4235 21.3276 31.4168 21.3369 31.4102 21.3463L24.8137 30.5813C24.5468 30.955 24.0596 31.0988 23.6324 30.93C23.2053 30.7612 22.9481 30.3231 23.0088 29.8679L23.8578 23.5H20.0546C20.0431 23.5 20.0316 23.5 20.0201 23.5C19.7993 23.5001 19.5705 23.5001 19.3815 23.4828C19.1956 23.4659 18.8574 23.4208 18.5551 23.1875C18.2025 22.9154 17.9891 22.5007 17.9726 22.0556C17.9585 21.674 18.1184 21.3726 18.2126 21.2114C18.3084 21.0476 18.4414 20.8615 18.5698 20.6819C18.5765 20.6725 18.5832 20.6631 18.5898 20.6538L25.1863 11.4188C25.4532 11.045 25.9404 10.9012 26.3676 11.07Z" fill="#EAEDFF"/>
</svg>
