<svg width="42" height="42" viewBox="0 0 42 42" fill="none" xmlns="http://www.w3.org/2000/svg">
<path opacity="0.05" fill-rule="evenodd" clip-rule="evenodd" d="M31 2H11C8.87497 2 6.92196 2.73648 5.38228 3.96813L14.6712 13.2571C16.3951 11.8464 18.5987 11 21 11C23.4013 11 25.6048 11.8464 27.3287 13.257L36.6177 3.96809C35.078 2.73647 33.125 2 31 2ZM25.9056 14.6801C24.5509 13.6271 22.8487 13 21 13C19.1513 13 17.449 13.6271 16.0943 14.6802L21 19.5858L25.9056 14.6801ZM13.257 14.6713L3.96807 5.38235C2.73646 6.92201 2 8.875 2 11V31C2 33.125 2.73647 35.078 3.96809 36.6177L13.257 27.3287C11.8464 25.6048 11 23.4013 11 21C11 18.5987 11.8464 16.3952 13.257 14.6713ZM14.6801 25.9056C13.6271 24.5509 13 22.8487 13 21C13 19.1513 13.6271 17.4491 14.6801 16.0944L19.5857 21L14.6801 25.9056ZM14.6713 28.7429L5.3823 38.0319C6.92197 39.2635 8.87498 40 11 40H31C33.125 40 35.078 39.2635 36.6176 38.0319L27.3287 28.743C25.6048 30.1536 23.4013 31 21 31C18.5987 31 16.3951 30.1536 14.6713 28.7429ZM25.9056 27.3199C24.5509 28.3729 22.8487 29 21 29C19.1513 29 17.449 28.3729 16.0943 27.3198L21 22.4142L25.9056 27.3199ZM27.3198 25.9057L22.4142 21L27.3198 16.0943C28.3729 17.449 29 19.1513 29 21C29 22.8487 28.3729 24.551 27.3198 25.9057ZM28.7429 27.3288C30.1536 25.6049 31 23.4013 31 21C31 18.5987 30.1536 16.3951 28.7429 14.6713L38.0319 5.3823C39.2635 6.92197 40 8.87498 40 11V31C40 33.125 39.2635 35.078 38.0319 36.6177L28.7429 27.3288ZM11 0C4.92487 0 0 4.92487 0 11V31C0 37.0751 4.92487 42 11 42H31C37.0751 42 42 37.0751 42 31V11C42 4.92487 37.0751 0 31 0H11Z" fill="#2EF2FF"/>
<g clip-path="url(#clip0_23_282)">
<path fill-rule="evenodd" clip-rule="evenodd" d="M32.4216 17.6344C32.3431 16.7268 32.1732 15.9793 31.8203 15.2585C31.7288 15.0716 31.6242 14.8981 31.5196 14.7245C31.0882 14.0438 30.5392 13.5232 29.8072 13.0026C29.1013 12.4954 28.1863 11.9615 27.0359 11.2807L26.9706 11.2407C25.8203 10.5599 24.9052 10.026 24.1209 9.65223C23.3105 9.26513 22.5915 9.03821 21.8072 8.99817C21.598 8.99817 21.402 8.99817 21.1928 8.99817C20.4085 9.03821 19.6895 9.26513 18.8791 9.65223C18.0948 10.026 17.1797 10.5599 16.0294 11.2407L15.9641 11.2807C14.8137 11.9615 13.8987 12.4954 13.1928 13.0026C12.4608 13.5232 11.9118 14.0438 11.4804 14.7245C11.3758 14.8981 11.2712 15.0849 11.1797 15.2585C10.8268 15.9793 10.6569 16.7268 10.5784 17.6344C10.5 18.5154 10.5 19.5966 10.5 20.9581V21.0382C10.5 22.3997 10.5 23.4809 10.5784 24.3619C10.6569 25.2696 10.8268 26.0171 11.1797 26.7379C11.2712 26.9248 11.3758 27.0983 11.4804 27.2718C11.9118 27.9526 12.4608 28.4731 13.1928 28.9937C13.8987 29.5009 14.8137 30.0349 15.9641 30.7156L16.0294 30.7557C17.1797 31.4364 18.0948 31.9704 18.8791 32.3441C19.6895 32.7312 20.4085 32.9581 21.1928 32.9982C21.402 32.9982 21.598 32.9982 21.8072 32.9982C22.5915 32.9581 23.3105 32.7312 24.1209 32.3441C24.9052 31.9704 25.8203 31.4364 26.9706 30.7557L27.0359 30.7156C28.1863 30.0349 29.1013 29.5009 29.8072 28.9937C30.5392 28.4731 31.0882 27.9526 31.5196 27.2718C31.6242 27.0983 31.7288 26.9114 31.8203 26.7379C32.1732 26.0171 32.3431 25.2696 32.4216 24.3619C32.5 23.4809 32.5 22.3997 32.5 21.0382V20.9581C32.5 19.5966 32.5 18.5154 32.4216 17.6344ZM26.7876 22.1728C24.1993 23.0538 23.4935 23.7746 22.6307 26.4175C22.2516 27.5655 20.6961 27.5655 20.317 26.4175C19.4542 23.7746 18.7484 23.0538 16.1601 22.1728C15.598 21.9859 15.3105 21.4921 15.3105 20.9982C15.3105 20.5043 15.598 20.0104 16.1601 19.8235C18.7484 18.9426 19.4542 18.2218 20.317 15.5788C20.6961 14.4309 22.2516 14.4309 22.6307 15.5788C23.4935 18.2218 24.1993 18.9426 26.7876 19.8235C27.9118 20.2106 27.9118 21.7991 26.7876 22.1862V22.1728Z" fill="#EAEDFF"/>
</g>
<defs>
<clipPath id="clip0_23_282">
<rect width="24" height="24" fill="white" transform="translate(9.5 8.99817)"/>
</clipPath>
</defs>
</svg>
