<svg width="16" height="16" viewBox="0 0 16 16" fill="none" xmlns="http://www.w3.org/2000/svg">
<path d="M8.25 0.25C12.5 0.25 16 3.75 16 8C16 12.2812 12.5 15.75 8.25 15.75C3.96875 15.75 0.5 12.2812 0.5 8C0.5 3.75 3.96875 0.25 8.25 0.25ZM11.8125 5.53125C11.8438 5.4375 11.8438 5.34375 11.8125 5.21875C11.8125 5.15625 11.75 5.0625 11.7188 5.03125C11.625 4.9375 11.4688 4.9375 11.4062 4.9375C11.125 4.9375 10.6562 5.09375 8.5 6C7.75 6.3125 6.25 6.9375 4 7.9375C3.625 8.09375 3.4375 8.21875 3.40625 8.375C3.375 8.625 3.78125 8.71875 4.25 8.875C4.65625 9 5.1875 9.15625 5.46875 9.15625C5.71875 9.15625 6 9.0625 6.3125 8.84375C8.40625 7.40625 9.5 6.6875 9.5625 6.6875C9.625 6.6875 9.6875 6.65625 9.71875 6.6875C9.78125 6.75 9.78125 6.8125 9.75 6.84375C9.71875 7 7.75 8.8125 7.625 8.9375C7.1875 9.375 6.6875 9.65625 7.46875 10.1562C8.125 10.5938 8.5 10.875 9.1875 11.3125C9.625 11.5938 9.96875 11.9375 10.4062 11.9062C10.625 11.875 10.8438 11.6875 10.9375 11.0938C11.2188 9.75 11.7188 6.75 11.8125 5.53125Z" fill="#65B6EF"/>
</svg>
